<mxfile host="app.diagrams.net" agent="Mozilla/5.0 (Windows NT 10.0; Win64; x64; rv:129.0) Gecko/20100101 Firefox/129.0" version="24.7.7">
  <diagram id="tDPf8CNvzOaNMvIxZvwo" name="Seite-1">
    <mxGraphModel dx="567" dy="242" grid="1" gridSize="10" guides="1" tooltips="1" connect="1" arrows="1" fold="1" page="1" pageScale="1" pageWidth="827" pageHeight="1169" math="0" shadow="0">
      <root>
        <mxCell id="0" />
        <mxCell id="1" parent="0" />
        <mxCell id="O3lXl0DsIWepwv78E3Ku-21" value="" style="rounded=0;whiteSpace=wrap;html=1;fontSize=20;fillColor=none;" parent="1" vertex="1">
          <mxGeometry x="400" y="93" width="208" height="140" as="geometry" />
        </mxCell>
        <mxCell id="lzmcIZGoqttrfyCk76lP-21" style="edgeStyle=orthogonalEdgeStyle;rounded=0;orthogonalLoop=1;jettySize=auto;html=1;exitX=0.5;exitY=1;exitDx=0;exitDy=0;entryX=0.5;entryY=0;entryDx=0;entryDy=0;strokeWidth=4;fontSize=20;curved=1;fillColor=#dae8fc;strokeColor=#6c8ebf;" parent="1" source="lzmcIZGoqttrfyCk76lP-19" target="lzmcIZGoqttrfyCk76lP-20" edge="1">
          <mxGeometry relative="1" as="geometry" />
        </mxCell>
        <mxCell id="X_1ddgbnGcCbuA_kLiaL-2" style="edgeStyle=orthogonalEdgeStyle;rounded=0;orthogonalLoop=1;jettySize=auto;html=1;exitX=0.25;exitY=1;exitDx=0;exitDy=0;curved=1;strokeWidth=4;entryX=0.25;entryY=0;entryDx=0;entryDy=0;fillColor=#0050ef;strokeColor=#001DBC;" parent="1" source="lzmcIZGoqttrfyCk76lP-19" target="lzmcIZGoqttrfyCk76lP-20" edge="1">
          <mxGeometry relative="1" as="geometry" />
        </mxCell>
        <mxCell id="X_1ddgbnGcCbuA_kLiaL-3" style="edgeStyle=orthogonalEdgeStyle;rounded=0;orthogonalLoop=1;jettySize=auto;html=1;exitX=0.75;exitY=1;exitDx=0;exitDy=0;entryX=0.75;entryY=0;entryDx=0;entryDy=0;curved=1;strokeWidth=4;fillColor=#ffe6cc;strokeColor=#d79b00;" parent="1" source="lzmcIZGoqttrfyCk76lP-19" target="lzmcIZGoqttrfyCk76lP-20" edge="1">
          <mxGeometry relative="1" as="geometry" />
        </mxCell>
        <mxCell id="lzmcIZGoqttrfyCk76lP-19" value="&lt;font style=&quot;font-size: 20px;&quot;&gt;Input&lt;/font&gt;" style="rounded=0;whiteSpace=wrap;html=1;fillColor=#CCCCCC;fontColor=#333333;strokeColor=none;" parent="1" vertex="1">
          <mxGeometry x="240" y="40" width="120" height="53" as="geometry" />
        </mxCell>
        <mxCell id="X_1ddgbnGcCbuA_kLiaL-40" style="edgeStyle=orthogonalEdgeStyle;rounded=0;orthogonalLoop=1;jettySize=auto;html=1;exitX=0.5;exitY=1;exitDx=0;exitDy=0;curved=1;fillColor=#dae8fc;strokeColor=#6c8ebf;strokeWidth=4;dashed=1;dashPattern=1 2;entryX=0.5;entryY=0;entryDx=0;entryDy=0;" parent="1" source="lzmcIZGoqttrfyCk76lP-20" target="lzmcIZGoqttrfyCk76lP-22" edge="1">
          <mxGeometry relative="1" as="geometry">
            <Array as="points" />
            <mxPoint x="480" y="410" as="targetPoint" />
          </mxGeometry>
        </mxCell>
        <mxCell id="lzmcIZGoqttrfyCk76lP-20" value="&lt;span style=&quot;font-size: 13px;&quot; lang=&quot;de&quot; class=&quot;ILfuVd&quot;&gt;&lt;span style=&quot;font-size: 20px;&quot; class=&quot;hgKElc&quot;&gt;&lt;font style=&quot;font-size: 20px;&quot;&gt;&lt;b&gt;1&lt;/b&gt;&lt;/font&gt;&lt;/span&gt;&lt;/span&gt;&lt;font size=&quot;1&quot;&gt;&lt;span lang=&quot;de&quot; class=&quot;ILfuVd&quot;&gt;&lt;span class=&quot;hgKElc&quot;&gt;&lt;font&gt;&lt;b style=&quot;font-size: 15px;&quot;&gt;st&lt;/b&gt;&lt;/font&gt;&lt;/span&gt;&lt;/span&gt;&lt;/font&gt;&lt;span style=&quot;font-size: 13px;&quot; lang=&quot;de&quot; class=&quot;ILfuVd&quot;&gt;&lt;span style=&quot;font-size: 20px;&quot; class=&quot;hgKElc&quot;&gt;&lt;font style=&quot;font-size: 20px;&quot;&gt;&lt;b&gt; ∑&lt;/b&gt;&lt;br&gt;&lt;/font&gt;&lt;/span&gt;&lt;/span&gt;" style="rounded=0;whiteSpace=wrap;html=1;fillColor=#CCCCCC;fontColor=#333333;strokeColor=none;" parent="1" vertex="1">
          <mxGeometry x="240" y="260" width="120" height="53" as="geometry" />
        </mxCell>
        <mxCell id="lzmcIZGoqttrfyCk76lP-22" value="&lt;span style=&quot;font-size: 13px;&quot; lang=&quot;de&quot; class=&quot;ILfuVd&quot;&gt;&lt;span style=&quot;font-size: 20px;&quot; class=&quot;hgKElc&quot;&gt;&lt;font style=&quot;font-size: 20px;&quot;&gt;&lt;b&gt;N&lt;/b&gt;&lt;/font&gt;&lt;/span&gt;&lt;/span&gt;&lt;font size=&quot;1&quot;&gt;&lt;span lang=&quot;de&quot; class=&quot;ILfuVd&quot;&gt;&lt;span class=&quot;hgKElc&quot;&gt;&lt;font&gt;&lt;b style=&quot;font-size: 15px;&quot;&gt;th&lt;/b&gt;&lt;/font&gt;&lt;/span&gt;&lt;/span&gt;&lt;/font&gt;&lt;span style=&quot;font-size: 13px;&quot; lang=&quot;de&quot; class=&quot;ILfuVd&quot;&gt;&lt;span style=&quot;font-size: 20px;&quot; class=&quot;hgKElc&quot;&gt;&lt;font style=&quot;font-size: 20px;&quot;&gt;&lt;b&gt; ∑&lt;/b&gt;&lt;br&gt;&lt;/font&gt;&lt;/span&gt;&lt;/span&gt;" style="rounded=0;whiteSpace=wrap;html=1;fillColor=#CCCCCC;fontColor=#333333;strokeColor=none;" parent="1" vertex="1">
          <mxGeometry x="240" y="370" width="120" height="53" as="geometry" />
        </mxCell>
        <mxCell id="X_1ddgbnGcCbuA_kLiaL-39" style="edgeStyle=orthogonalEdgeStyle;rounded=0;orthogonalLoop=1;jettySize=auto;html=1;exitX=0.25;exitY=1;exitDx=0;exitDy=0;entryX=0.25;entryY=0;entryDx=0;entryDy=0;curved=1;fillColor=#0050ef;strokeColor=#001DBC;strokeWidth=4;dashed=1;dashPattern=1 2;" parent="1" source="lzmcIZGoqttrfyCk76lP-20" target="lzmcIZGoqttrfyCk76lP-22" edge="1">
          <mxGeometry relative="1" as="geometry">
            <Array as="points">
              <mxPoint x="270" y="370" />
              <mxPoint x="270" y="370" />
            </Array>
          </mxGeometry>
        </mxCell>
        <mxCell id="X_1ddgbnGcCbuA_kLiaL-41" style="edgeStyle=orthogonalEdgeStyle;rounded=0;orthogonalLoop=1;jettySize=auto;html=1;exitX=0.75;exitY=1;exitDx=0;exitDy=0;curved=1;strokeWidth=4;fillColor=#ffe6cc;strokeColor=#d79b00;entryX=0.75;entryY=0;entryDx=0;entryDy=0;dashed=1;dashPattern=1 2;" parent="1" source="lzmcIZGoqttrfyCk76lP-20" target="lzmcIZGoqttrfyCk76lP-22" edge="1">
          <mxGeometry relative="1" as="geometry">
            <mxPoint x="360.03999999999996" y="498.5" as="targetPoint" />
            <Array as="points">
              <mxPoint x="330" y="290" />
              <mxPoint x="330" y="290" />
            </Array>
            <mxPoint x="400" y="231.5" as="sourcePoint" />
          </mxGeometry>
        </mxCell>
        <mxCell id="O3lXl0DsIWepwv78E3Ku-1" style="edgeStyle=none;rounded=0;orthogonalLoop=1;jettySize=auto;html=1;entryX=0;entryY=0;entryDx=0;entryDy=0;strokeColor=#333333;strokeWidth=2;fontSize=20;endArrow=none;endFill=0;dashed=1;dashPattern=1 2;" parent="1" target="O3lXl0DsIWepwv78E3Ku-21" edge="1">
          <mxGeometry relative="1" as="geometry">
            <mxPoint x="270" y="170" as="sourcePoint" />
          </mxGeometry>
        </mxCell>
        <mxCell id="O3lXl0DsIWepwv78E3Ku-2" style="edgeStyle=none;rounded=0;orthogonalLoop=1;jettySize=auto;html=1;entryX=0;entryY=0;entryDx=0;entryDy=0;strokeColor=#333333;strokeWidth=2;fontSize=20;endArrow=none;endFill=0;dashed=1;dashPattern=1 2;" parent="1" target="O3lXl0DsIWepwv78E3Ku-21" edge="1">
          <mxGeometry relative="1" as="geometry">
            <mxPoint x="330" y="170" as="sourcePoint" />
          </mxGeometry>
        </mxCell>
        <mxCell id="O3lXl0DsIWepwv78E3Ku-3" value="&lt;font style=&quot;font-size: 17px;&quot;&gt;Module 1&lt;/font&gt;" style="rounded=0;whiteSpace=wrap;html=1;fillColor=#CCCCCC;fontColor=#333333;strokeColor=none;verticalAlign=top;" parent="1" vertex="1">
          <mxGeometry x="400" y="93" width="78" height="140" as="geometry" />
        </mxCell>
        <mxCell id="O3lXl0DsIWepwv78E3Ku-4" style="edgeStyle=none;rounded=0;orthogonalLoop=1;jettySize=auto;html=1;exitX=1;exitY=1;exitDx=0;exitDy=0;strokeWidth=0.5;entryX=0.5;entryY=0;entryDx=0;entryDy=0;" parent="1" source="O3lXl0DsIWepwv78E3Ku-6" target="O3lXl0DsIWepwv78E3Ku-8" edge="1">
          <mxGeometry relative="1" as="geometry">
            <mxPoint x="450" y="173" as="targetPoint" />
          </mxGeometry>
        </mxCell>
        <mxCell id="O3lXl0DsIWepwv78E3Ku-5" style="edgeStyle=none;rounded=0;orthogonalLoop=1;jettySize=auto;html=1;exitX=0.5;exitY=1;exitDx=0;exitDy=0;entryX=0.5;entryY=0;entryDx=0;entryDy=0;strokeWidth=0.5;" parent="1" source="O3lXl0DsIWepwv78E3Ku-6" target="O3lXl0DsIWepwv78E3Ku-9" edge="1">
          <mxGeometry relative="1" as="geometry" />
        </mxCell>
        <mxCell id="O3lXl0DsIWepwv78E3Ku-6" value="" style="ellipse;whiteSpace=wrap;html=1;aspect=fixed;strokeColor=none;fillColor=#4D4D4D;" parent="1" vertex="1">
          <mxGeometry x="420" y="123" width="20" height="20" as="geometry" />
        </mxCell>
        <mxCell id="O3lXl0DsIWepwv78E3Ku-7" style="edgeStyle=none;rounded=0;orthogonalLoop=1;jettySize=auto;html=1;exitX=0;exitY=1;exitDx=0;exitDy=0;entryX=0.5;entryY=0;entryDx=0;entryDy=0;strokeWidth=0.5;" parent="1" source="O3lXl0DsIWepwv78E3Ku-8" target="O3lXl0DsIWepwv78E3Ku-9" edge="1">
          <mxGeometry relative="1" as="geometry" />
        </mxCell>
        <mxCell id="O3lXl0DsIWepwv78E3Ku-8" value="" style="ellipse;whiteSpace=wrap;html=1;aspect=fixed;strokeColor=none;fillColor=#4D4D4D;" parent="1" vertex="1">
          <mxGeometry x="440" y="163" width="20" height="20" as="geometry" />
        </mxCell>
        <mxCell id="O3lXl0DsIWepwv78E3Ku-9" value="" style="ellipse;whiteSpace=wrap;html=1;aspect=fixed;strokeColor=none;fillColor=#4D4D4D;" parent="1" vertex="1">
          <mxGeometry x="420" y="200" width="20" height="20" as="geometry" />
        </mxCell>
        <mxCell id="O3lXl0DsIWepwv78E3Ku-10" style="edgeStyle=none;rounded=0;orthogonalLoop=1;jettySize=auto;html=1;exitX=1;exitY=0.5;exitDx=0;exitDy=0;entryX=0;entryY=0.5;entryDx=0;entryDy=0;dashed=1;strokeWidth=1;fontSize=20;endArrow=none;endFill=0;" parent="1" source="O3lXl0DsIWepwv78E3Ku-3" target="O3lXl0DsIWepwv78E3Ku-11" edge="1">
          <mxGeometry relative="1" as="geometry">
            <mxPoint x="550" y="173" as="sourcePoint" />
          </mxGeometry>
        </mxCell>
        <mxCell id="O3lXl0DsIWepwv78E3Ku-11" value="&lt;font style=&quot;font-size: 25px;&quot;&gt;&lt;span class=&quot;mwe-math-element&quot;&gt;&lt;img alt=&quot;{\displaystyle \infty }&quot; style=&quot;vertical-align: -0.338ex; width:2.324ex; height:1.676ex;&quot; aria-hidden=&quot;true&quot; class=&quot;mwe-math-fallback-image-inline mw-invert skin-invert&quot; src=&quot;https://wikimedia.org/api/rest_v1/media/math/render/svg/c26c105004f30c27aa7c2a9c601550a4183b1f21&quot;&gt;&lt;/span&gt;&lt;/font&gt;" style="rounded=0;whiteSpace=wrap;html=1;fillColor=#CCCCCC;fontColor=#333333;strokeColor=none;verticalAlign=middle;" parent="1" vertex="1">
          <mxGeometry x="528" y="93" width="80" height="140" as="geometry" />
        </mxCell>
      </root>
    </mxGraphModel>
  </diagram>
</mxfile>
